<svg xmlns="http://www.w3.org/2000/svg" viewBox="0 0 263.05 263.05"><defs><style>.cls-1{isolation:isolate;}.cls-2{fill:#fff;}.cls-3{fill:#ac464b;}.cls-4{fill:#a66933;}.cls-5{fill:#b87942;}.cls-6{fill:#333;}.cls-7{fill:#632825;}.cls-8{fill:#1a1a1a;}.cls-8,.cls-9{opacity:0.7;mix-blend-mode:multiply;}.cls-9{fill:#f5c586;}</style></defs><title>Amigo2</title><g class="cls-1"><g id="Layer_2" data-name="Layer 2"><g id="Layer_1-2" data-name="Layer 1"><circle class="cls-2" cx="131.52" cy="131.52" r="131.52"/><path class="cls-3" d="M38,215.69V191.11C38,173.36,50.19,159,65.18,159H196.75c15,0,27.13,14.39,27.13,32.15v24.57Z"/><path class="cls-4" d="M164.78,94.61a8,8,0,0,0,8,8h0a8,8,0,0,0,8-8V79.38a8,8,0,0,0-8-8h0a8,8,0,0,0-8,8Z"/><path class="cls-4" d="M81.19,94.61a8,8,0,0,0,8,8h0a8,8,0,0,0,8-8V79.38a8,8,0,0,0-8-8h0a8,8,0,0,0-8,8Z"/><path class="cls-4" d="M106.47,167.47a30.12,30.12,0,0,0,49,0V122.23h-49Z"/><path class="cls-5" d="M89.26,110.35A41.7,41.7,0,0,0,131,152.05h0a41.7,41.7,0,0,0,41.71-41.71V63.64A41.7,41.7,0,0,0,131,21.94h0a41.7,41.7,0,0,0-41.7,41.7Z"/><path class="cls-6" d="M89.22,33.51c10.85-13.73,27.25-16.24,42.26-16.24s30.38,2.51,41.24,16.24,0,53.48,0,53.48l-9.49-26.88a92.67,92.67,0,0,0-33.5-6.26c-19.07,0-31,6.26-31,6.26L89.22,87S78.36,47.24,89.22,33.51Z"/><path class="cls-7" d="M155.46,157.49s-3.67,15.81-24.5,22.58c0,0,11.85,5.1,13.86,13.44,0,0,15-16.82,17.34-25.68,0,0-.73-14-6.7-14Z"/><path class="cls-7" d="M106.47,157.49s3.67,15.81,24.5,22.58c0,0-11.85,5.1-13.85,13.44,0,0-15-16.82-17.34-25.68,0,0,.72-14,6.7-14Z"/><polygon class="cls-8" points="101.45 158.97 101.45 158.97 101.45 158.97 101.45 158.97"/><path class="cls-4" d="M89.22,87s-1.75-6.41-3.14-15a8,8,0,0,0-4.89,7.36V94.61a8,8,0,0,0,8,8h.09V86.87Z"/><path class="cls-9" d="M89.5,86.19l-.24.68v23.48A42,42,0,0,0,89.8,117C89.8,100.22,89.65,91.12,89.5,86.19Z"/><path class="cls-9" d="M130.41,152h0a60.26,60.26,0,0,1-9.74-1.28A41.69,41.69,0,0,0,130.41,152Z"/></g></g></g></svg>