<svg xmlns="http://www.w3.org/2000/svg" viewBox="0 0 263.05 263.05"><defs><style>.cls-1{fill:#fff;}.cls-2{fill:#333;}.cls-3{fill:#ffbe3f;}.cls-4{fill:#a66933;}.cls-5{fill:#b87942;}</style></defs><title>Amigo6</title><g id="Layer_2" data-name="Layer 2"><g id="Layer_1-2" data-name="Layer 1"><circle class="cls-1" cx="131.52" cy="131.52" r="131.52"/><path class="cls-2" d="M136.83,22.87c12.45,5.81,36.6,3.81,46.57,25.2s3.52,30.48,8.5,39,7.62,17.88,3.81,31.36,5.72,39.91,11,40.5c0,0-10.61.2-14.22-18.81,0,0-2.64,14.65,5,20.22s12.6,18.46-8.2,23.15S87,200.76,60.9,164.13c0,0,7.62,5,17.58-7s-6.45.26-9.38-2.95c0,0,11.72-6.43,11.14-11.12S63.82,128.08,72,103.75,87,91.15,84.34,72.69,108.87,9.81,136.83,22.87Z"/><path class="cls-3" d="M45.38,221.6v-23c0-16.64,11.38-30.13,25.43-30.13H194.14c14,0,25.43,13.49,25.43,30.13v23Z"/><path class="cls-4" d="M112.52,185.81l13.69,24.54a7.18,7.18,0,0,0,12.54,0l13.69-24.54V143H112.52Z"/><path class="cls-5" d="M94.3,115.05a39.09,39.09,0,0,0,39.09,39.09h0a39.09,39.09,0,0,0,39.09-39.09V71.27a39.09,39.09,0,0,0-39.09-39.09h0A39.09,39.09,0,0,0,94.3,71.27Z"/><path class="cls-2" d="M197.27,153.92c-.61-1.47-1.3-2.94-1.77-4.37-2.53-7.71-2.37-15-1.48-23,3-27.12-.7-67-17.17-89.86-15.18-21.07-41.28-24.57-63.78-13.48C88.23,35.44,76.2,58.4,72.09,84.8c-2,12.87-3.77,27.1-2.68,40.13a52.56,52.56,0,0,0,1.91,10c.79,2.77,2.31,6.21,1.47,9.12-1.26,4.38-7.1,6.87-10.75,8.83-9,4.83-1,18.54,8,13.7,9.5-5.11,18.71-12.26,18.77-24.06,0-6.48-3.16-12.29-3.68-18.65-.55-6.76.31-13.86.74-20.62.69-10.82,1.68-21.77,4.47-32.27a55.39,55.39,0,0,0,1.26,14.33h65.73l2.37-25.71V85.34h15.6c1.83,9.07,3.76,16.59,3.74,25.12-.05,17.49-6.75,35.9,4.88,51.39,2.62,3.49,6.9,5.17,11,2.85C200,161.8,198.91,157.86,197.27,153.92Z"/></g></g></svg>