<svg xmlns="http://www.w3.org/2000/svg" viewBox="0 0 263.05 263.05"><defs><style>.cls-1{fill:#fff;}.cls-2{fill:#333;}.cls-3{fill:#a66933;}.cls-4{fill:#ccc;}.cls-5{fill:#b87942;}</style></defs><title>Amigo5</title><g id="Layer_2" data-name="Layer 2"><g id="Layer_1-2" data-name="Layer 1"><circle class="cls-1" cx="131.52" cy="131.52" r="131.52"/><path class="cls-2" d="M82.78,153.41c0,17.29,14,6.67,31.31,6.67h33.75c17.29,0,31.31,10.63,31.31-6.67V58A31.31,31.31,0,0,0,147.84,26.7H114.09A31.31,31.31,0,0,0,82.78,58Z"/><path class="cls-3" d="M163.9,101.33a7.77,7.77,0,0,0,7.77,7.77h0a7.77,7.77,0,0,0,7.77-7.77V86.5a7.77,7.77,0,0,0-7.77-7.77h0a7.77,7.77,0,0,0-7.77,7.77Z"/><path class="cls-3" d="M82.48,101.33a7.77,7.77,0,0,0,7.77,7.77h0A7.77,7.77,0,0,0,98,101.33V86.5a7.77,7.77,0,0,0-7.77-7.77h0a7.77,7.77,0,0,0-7.77,7.77Z"/><path class="cls-4" d="M40.46,219.27V195.34C40.46,178,52.29,164,66.88,164H195c14.59,0,26.43,14,26.43,31.31v23.93Z"/><path class="cls-3" d="M98,172.31s10.78,34,32.94,34,32.94-34,32.94-34V128.24H98Z"/><path class="cls-5" d="M90.34,116.66A40.62,40.62,0,0,0,131,157.29h0a40.62,40.62,0,0,0,40.62-40.62V71.17A40.62,40.62,0,0,0,131,30.55h0A40.62,40.62,0,0,0,90.34,71.17Z"/><path class="cls-2" d="M90.3,41.82c10.57-13.38,24.85-14.12,39.46-14.12s31.3.74,41.87,14.12,0,52.09,0,52.09l-9.24-37.23a108.27,108.27,0,0,1-32.63,5c-18.57,0-30.22-5-30.22-5L90.3,93.92S79.72,55.2,90.3,41.82Z"/></g></g></svg>