<svg xmlns="http://www.w3.org/2000/svg" viewBox="0 0 263.05 263.05"><defs><style>.cls-1{fill:#fff;}.cls-2{fill:#cbabe2;}.cls-3{fill:#a66933;}.cls-4{fill:#b87942;}.cls-5{fill:#333;}</style></defs><title>Amigo4</title><g id="Layer_2" data-name="Layer 2"><g id="Layer_1-2" data-name="Layer 1"><circle class="cls-1" cx="131.52" cy="131.52" r="131.52"/><path class="cls-2" d="M42.8,221.6V199c0-16.32,11.16-29.54,24.93-29.54H188.65c13.77,0,24.93,13.23,24.93,29.54V221.6Z"/><path class="cls-3" d="M108.62,186.51S109.7,201,128.19,201s19.57-14.51,19.57-14.51v-42H108.62Z"/><path class="cls-4" d="M86.38,126.76a42.71,42.71,0,0,0,42.71,42.71h0a42.71,42.71,0,0,0,42.71-42.71V78.92A42.72,42.72,0,0,0,129.1,36.21h0A42.72,42.72,0,0,0,86.38,78.92Z"/><path class="cls-5" d="M153.55,90.6h18s6.16-27.47-6.3-40.66c-18.77-19.86-56.41-22.87-72.88,1.83C80.66,69.36,86.13,90.6,86.13,90.6h64.44"/><path class="cls-5" d="M141.54,41h9.12s3.12-13.91-3.19-20.59c-9.5-10.06-28.56-11.58-36.9.93-5.93,8.9-3.16,19.66-3.16,19.66H140"/></g></g></svg>