<svg xmlns="http://www.w3.org/2000/svg" viewBox="0 0 263.05 263.05"><defs><style>.cls-1{fill:#fff;}.cls-2{fill:#333;}.cls-3{fill:#6bda96;}.cls-4{fill:#a66933;}.cls-5{fill:#b87942;}</style></defs><title>Amigo3</title><g id="Layer_2" data-name="Layer 2"><g id="Layer_1-2" data-name="Layer 1"><circle class="cls-1" cx="131.52" cy="131.52" r="131.52"/><path class="cls-2" d="M132.36,11.09c25.91,0,52.56,12.27,55.72,74.69s-5.26,46.63,3.51,84.5l-120.27,2.1S68.86,61.58,87.44,32.47,132.36,11.09,132.36,11.09Z"/><path class="cls-3" d="M40.41,217.82V193.73c0-17.41,11.91-31.52,26.6-31.52H196c14.69,0,26.6,14.11,26.6,31.52v24.09Z"/><path class="cls-4" d="M110.64,180.39s1.15,15.48,20.88,15.48,20.88-15.48,20.88-15.48V135.63H110.64Z"/><path class="cls-5" d="M91.58,106.37a40.89,40.89,0,0,0,40.89,40.89h0a40.89,40.89,0,0,0,40.89-40.89V60.57a40.89,40.89,0,0,0-40.89-40.89h0A40.89,40.89,0,0,0,91.58,60.57Z"/><path class="cls-2" d="M183.18,127.74a9.55,9.55,0,0,0-2.3-4.21,5,5,0,0,0-2.38-4.89l-5.16-3.42,3.12-76.39s-20.85-25.45-45.37-25.45S88.78,43.73,88.78,43.73L86.33,106S110.44,83,113,50.17c0,0,21.28,60.24,59,79.08A8.2,8.2,0,0,1,174,131.6C176.77,136.58,184.72,133.21,183.18,127.74Z"/></g></g></svg>