<svg xmlns="http://www.w3.org/2000/svg" viewBox="0 0 263.05 263.05"><defs><style>.cls-1{fill:#fff;}.cls-2{fill:#333;}.cls-3{fill:#ff9f88;}.cls-4{fill:#a66933;}.cls-5{fill:#b87942;}</style></defs><title>Amigo1</title><g id="Layer_2" data-name="Layer 2"><g id="Layer_1-2" data-name="Layer 1"><circle class="cls-1" cx="131.52" cy="131.52" r="131.52"/><path class="cls-2" d="M60.93,173.73C87.77,180.39,62.81,70,85.59,35.66S131.43,9.8,131.43,9.8h1.9s23.06-8.48,45.84,25.86S177,180.39,203.83,173.73c0,0-2.26,22.78-71.45,22.78v-.71C64.55,195.5,60.93,173.73,60.93,173.73Z"/><path class="cls-3" d="M38.26,215.48V190.82c0-17.82,12.19-32.27,27.23-32.27H197.56c15,0,27.23,14.45,27.23,32.27v24.66Z"/><path class="cls-4" d="M110.15,177.16S111.32,193,131.52,193s21.38-15.85,21.38-15.85V131.34H110.15Z"/><path class="cls-5" d="M85.86,111.9a46.66,46.66,0,0,0,46.66,46.65h0a46.66,46.66,0,0,0,46.66-46.65V59.64A46.66,46.66,0,0,0,132.51,13h0A46.66,46.66,0,0,0,85.86,59.64Z"/><path class="cls-2" d="M159.22,72.39H178.9s6.73-30-6.87-44.41-38.69-18.4-38.69-18.4S105.22,10.79,92.41,30s-6.83,42.41-6.83,42.41H156"/></g></g></svg>