<svg xmlns="http://www.w3.org/2000/svg" viewBox="0 0 131.15 131.15"><defs><style>.cls-1{fill:#fff;}</style></defs><title>Btn_Configuracion</title><g id="Layer_2" data-name="Layer 2"><g id="Layer_1-2" data-name="Layer 1"><path class="cls-1" d="M.27,85,5.66,98a3.54,3.54,0,0,0,4,2.1L24,96.9A3.5,3.5,0,0,1,27.41,98a49.76,49.76,0,0,0,5.73,5.72,3.49,3.49,0,0,1,1.11,3.43L31,121.45a3.54,3.54,0,0,0,2.1,4l13,5.39a3.54,3.54,0,0,0,4.34-1.38l7.83-12.37a3.49,3.49,0,0,1,3.21-1.64,49.76,49.76,0,0,0,8.1,0,3.5,3.5,0,0,1,3.22,1.65l7.82,12.36A3.54,3.54,0,0,0,85,130.88l13-5.39a3.54,3.54,0,0,0,2.1-4L96.9,107.18A3.5,3.5,0,0,1,98,103.74,49.75,49.75,0,0,0,103.74,98a3.49,3.49,0,0,1,3.43-1.11l14.28,3.21a3.54,3.54,0,0,0,4-2.1l5.39-13a3.54,3.54,0,0,0-1.38-4.34l-12.37-7.83a3.49,3.49,0,0,1-1.64-3.21,49.77,49.77,0,0,0,0-8.1,3.5,3.5,0,0,1,1.65-3.22l12.36-7.82a3.54,3.54,0,0,0,1.38-4.34l-5.39-13a3.54,3.54,0,0,0-4-2.1l-14.27,3.21a3.5,3.5,0,0,1-3.44-1.11A49.78,49.78,0,0,0,98,27.41,3.49,3.49,0,0,1,96.9,24L100.11,9.7a3.54,3.54,0,0,0-2.1-4L85,.27a3.54,3.54,0,0,0-4.34,1.38L72.83,14a3.49,3.49,0,0,1-3.21,1.64,49.72,49.72,0,0,0-8.1,0A3.5,3.5,0,0,1,58.31,14L50.49,1.65A3.54,3.54,0,0,0,46.15.27l-13,5.39a3.54,3.54,0,0,0-2.1,4L34.24,24a3.5,3.5,0,0,1-1.11,3.44,49.75,49.75,0,0,0-5.72,5.73A3.49,3.49,0,0,1,24,34.25L9.7,31a3.54,3.54,0,0,0-4,2.1l-5.39,13a3.54,3.54,0,0,0,1.38,4.34L14,58.32a3.49,3.49,0,0,1,1.64,3.21,49.77,49.77,0,0,0,0,8.1A3.5,3.5,0,0,1,14,72.84L1.65,80.66A3.54,3.54,0,0,0,.27,85ZM43.8,74.59a23.57,23.57,0,1,1,30.8,12.76A23.57,23.57,0,0,1,43.8,74.59Z"/></g></g></svg>