<svg xmlns="http://www.w3.org/2000/svg" xmlns:xlink="http://www.w3.org/1999/xlink" viewBox="0 0 1080 1920"><defs><style>.cls-1{fill:none;}.cls-2{opacity:0.47;mix-blend-mode:multiply;}.cls-3{fill:#939598;}.cls-4{isolation:isolate;}.cls-5{fill:url(#New_Gradient_Swatch_3);}.cls-6,.cls-7{opacity:0.15;}.cls-6{mix-blend-mode:color-burn;fill:url(#New_Pattern_2);}.cls-8{fill:#231f20;}.cls-9{fill:url(#linear-gradient);}</style><linearGradient id="New_Gradient_Swatch_3" x1="540" x2="540" y2="1920" gradientUnits="userSpaceOnUse"><stop offset="0" stop-color="#700b9c"/><stop offset="1" stop-color="#240b42"/></linearGradient><pattern id="New_Pattern_2" data-name="New Pattern 2" width="200" height="250" patternUnits="userSpaceOnUse" viewBox="0 0 200 250"><rect class="cls-1" width="200" height="250"/><g class="cls-2"><polygon class="cls-3" points="171.45 190.73 184.31 214.42 197.18 190.73 184.31 167.06 171.45 190.73"/><polygon class="cls-3" points="186.59 162.82 199.46 186.51 212.32 162.82 199.46 139.15 186.59 162.82"/><polygon class="cls-3" points="147.01 221.2 159.87 244.88 172.74 221.2 159.87 197.52 147.01 221.2"/><polygon class="cls-3" points="188.45 249.1 175.59 225.42 162.73 249.1 175.59 272.78 188.45 249.1"/><polygon class="cls-3" points="186.59 217.22 199.46 240.9 212.32 217.22 199.46 193.55 186.59 217.22"/><polygon class="cls-3" points="157.56 249.1 144.7 225.42 131.84 249.1 144.7 272.78 157.56 249.1"/></g><g class="cls-2"><polygon class="cls-3" points="2.31 190.73 15.17 214.42 28.03 190.73 15.17 167.06 2.31 190.73"/><polygon class="cls-3" points="-13.41 162.82 -0.55 186.51 12.32 162.82 -0.55 139.15 -13.41 162.82"/><polygon class="cls-3" points="-13.41 217.22 -0.55 240.9 12.32 217.22 -0.55 193.55 -13.41 217.22"/><polygon class="cls-3" points="26.72 221.2 39.58 244.88 52.44 221.2 39.58 197.52 26.72 221.2"/><polygon class="cls-3" points="37.27 249.1 24.41 225.42 11.54 249.1 24.41 272.78 37.27 249.1"/><polygon class="cls-3" points="68.16 249.1 55.3 225.42 42.44 249.1 55.3 272.78 68.16 249.1"/></g><g class="cls-2"><polygon class="cls-3" points="172.74 25.6 159.87 1.92 147.01 25.6 159.87 49.28 172.74 25.6"/><polygon class="cls-3" points="188.45 -0.9 175.59 -24.58 162.73 -0.9 175.59 22.78 188.45 -0.9"/><polygon class="cls-3" points="157.56 -0.9 144.7 -24.58 131.84 -0.9 144.7 22.78 157.56 -0.9"/><polygon class="cls-3" points="212.32 32.77 199.46 9.1 186.59 32.77 199.46 56.45 212.32 32.77"/><polygon class="cls-3" points="212.32 87.18 199.46 63.5 186.59 87.18 199.46 110.85 212.32 87.18"/><polygon class="cls-3" points="197.18 60.68 184.31 37 171.45 60.68 184.31 84.35 197.18 60.68"/></g><g class="cls-2"><polygon class="cls-3" points="71.45 65.73 84.31 89.42 97.17 65.73 84.31 42.06 71.45 65.73"/><polygon class="cls-3" points="102.31 65.73 115.17 89.42 128.03 65.73 115.17 42.06 102.31 65.73"/><polygon class="cls-3" points="86.59 37.82 99.45 61.52 112.32 37.82 99.45 14.15 86.59 37.82"/><polygon class="cls-3" points="72.73 150.6 59.87 126.92 47.01 150.6 59.87 174.28 72.73 150.6"/><polygon class="cls-3" points="47.01 96.2 59.87 119.88 72.73 96.2 59.87 72.52 47.01 96.2"/><polygon class="cls-3" points="88.45 124.1 75.59 100.42 62.73 124.1 75.59 147.78 88.45 124.1"/><polygon class="cls-3" points="86.59 92.22 99.45 115.9 112.32 92.22 99.45 68.55 86.59 92.22"/><polygon class="cls-3" points="57.56 124.1 44.7 100.42 31.84 124.1 44.7 147.78 57.56 124.1"/><polygon class="cls-3" points="128.03 185.68 115.17 162 102.31 185.68 115.17 209.35 128.03 185.68"/><polygon class="cls-3" points="152.44 150.6 139.58 126.92 126.72 150.6 139.58 174.28 152.44 150.6"/><polygon class="cls-3" points="126.72 96.2 139.58 119.88 152.44 96.2 139.58 72.52 126.72 96.2"/><polygon class="cls-3" points="137.27 124.1 124.41 100.42 111.55 124.1 124.41 147.78 137.27 124.1"/><polygon class="cls-3" points="112.32 157.78 99.45 134.1 86.59 157.78 99.45 181.45 112.32 157.78"/><polygon class="cls-3" points="168.16 124.1 155.3 100.42 142.44 124.1 155.3 147.78 168.16 124.1"/><polygon class="cls-3" points="112.32 212.18 99.45 188.5 86.59 212.18 99.45 235.85 112.32 212.18"/><polygon class="cls-3" points="97.17 185.68 84.31 162 71.45 185.68 84.31 209.35 97.17 185.68"/></g><g class="cls-2"><polygon class="cls-3" points="28.03 60.68 15.17 37 2.31 60.68 15.17 84.35 28.03 60.68"/><polygon class="cls-3" points="52.44 25.6 39.58 1.92 26.72 25.6 39.58 49.28 52.44 25.6"/><polygon class="cls-3" points="37.27 -0.9 24.41 -24.58 11.54 -0.9 24.41 22.78 37.27 -0.9"/><polygon class="cls-3" points="12.32 32.77 -0.55 9.1 -13.41 32.77 -0.55 56.45 12.32 32.77"/><polygon class="cls-3" points="68.16 -0.9 55.3 -24.58 42.44 -0.9 55.3 22.78 68.16 -0.9"/><polygon class="cls-3" points="12.32 87.18 -0.55 63.5 -13.41 87.18 -0.55 110.85 12.32 87.18"/></g></pattern><linearGradient id="linear-gradient" y1="134.95" x2="1080" y2="134.95" gradientUnits="userSpaceOnUse"><stop offset="0" stop-color="#5e7acf"/><stop offset="1" stop-color="#700b9c"/></linearGradient></defs><title>Fondo_02</title><g class="cls-4"><g id="Layer_2" data-name="Layer 2"><g id="Layer_1-2" data-name="Layer 1"><rect class="cls-5" width="1080" height="1920"/><rect class="cls-6" width="1080" height="1920"/><g class="cls-7"><path class="cls-8" d="M0,194.76S181.9,281.9,539.8,281.9,1080,194.76,1080,194.76V12H0Z"/><path class="cls-8" d="M0,193.76S181.9,280.9,539.8,280.9,1080,193.76,1080,193.76V11H0Z"/><path class="cls-8" d="M0,192.76S181.9,279.9,539.8,279.9,1080,192.76,1080,192.76V10H0Z"/><path class="cls-8" d="M0,191.76S181.9,278.9,539.8,278.9,1080,191.76,1080,191.76V9H0Z"/><path class="cls-8" d="M0,190.76S181.9,277.9,539.8,277.9,1080,190.76,1080,190.76V8H0Z"/><path class="cls-8" d="M0,189.76S181.9,276.9,539.8,276.9,1080,189.76,1080,189.76V7H0Z"/><path class="cls-8" d="M0,188.76S181.9,275.9,539.8,275.9,1080,188.76,1080,188.76V6H0Z"/><path class="cls-8" d="M0,187.76S181.9,274.9,539.8,274.9,1080,187.76,1080,187.76V5H0Z"/><path class="cls-8" d="M0,186.76S181.9,273.9,539.8,273.9,1080,186.76,1080,186.76V4H0Z"/><path class="cls-8" d="M0,185.76S181.9,272.9,539.8,272.9,1080,185.76,1080,185.76V3H0Z"/><path class="cls-8" d="M0,184.76S181.9,271.9,539.8,271.9,1080,184.76,1080,184.76V2H0Z"/><path class="cls-8" d="M0,183.76S181.9,270.9,539.8,270.9,1080,183.76,1080,183.76V1H0Z"/><path class="cls-8" d="M0,182.76S181.9,269.9,539.8,269.9,1080,182.76,1080,182.76V0H0Z"/></g><path class="cls-9" d="M0,182.76S181.9,269.9,539.8,269.9,1080,182.76,1080,182.76V0H0Z"/></g></g></g></svg>