<svg xmlns="http://www.w3.org/2000/svg" xmlns:xlink="http://www.w3.org/1999/xlink" viewBox="0 0 789.78 187"><defs><style>.cls-1{fill:#4c008e;}.cls-2{fill:url(#New_Gradient_Swatch_1);}.cls-3{fill:none;stroke:#a12bed;stroke-miterlimit:10;stroke-width:2px;}.cls-4{font-size:77.5px;fill:#fff;font-family:Montserrat-Light, Montserrat;}</style><linearGradient id="New_Gradient_Swatch_1" x1="47.78" y1="-77.47" x2="742" y2="249.47" gradientUnits="userSpaceOnUse"><stop offset="0" stop-color="#6469be"/><stop offset="0.05" stop-color="#6564be"/><stop offset="0.46" stop-color="#6f3fbc"/><stop offset="0.79" stop-color="#7628ba"/><stop offset="1" stop-color="#7820ba"/></linearGradient></defs><title>Login_Btn_Inicio</title><g id="Layer_2" data-name="Layer 2"><g id="Layer_1-2" data-name="Layer 1"><rect class="cls-1" x="1" y="17" width="787.78" height="170" rx="26.89" ry="26.89"/><rect class="cls-1" x="1" y="15" width="787.78" height="170" rx="26.89" ry="26.89"/><rect class="cls-1" x="1" y="13" width="787.78" height="170" rx="26.89" ry="26.89"/><rect class="cls-1" x="1" y="11" width="787.78" height="170" rx="26.89" ry="26.89"/><rect class="cls-1" x="1" y="9" width="787.78" height="170" rx="26.89" ry="26.89"/><rect class="cls-1" x="1" y="7" width="787.78" height="170" rx="26.89" ry="26.89"/><rect class="cls-1" x="1" y="5" width="787.78" height="170" rx="26.89" ry="26.89"/><rect class="cls-1" x="1" y="3" width="787.78" height="170" rx="26.89" ry="26.89"/><rect class="cls-1" x="1" y="1" width="787.78" height="170" rx="26.89" ry="26.89"/><rect class="cls-2" x="1" y="1" width="787.78" height="170" rx="26.89" ry="26.89"/><rect class="cls-3" x="1" y="1" width="787.78" height="170" rx="26.89" ry="26.89"/><text class="cls-4" transform="translate(143.6 108.92)">Iniciar Sesión</text></g></g></svg>