<svg xmlns="http://www.w3.org/2000/svg" viewBox="0 0 1007.54 287.08"><defs><style>.cls-1{fill:#f7ce15;}.cls-2{fill:#fdfefd;}.cls-3{fill:#010101;}.cls-4{fill:#fff;}</style></defs><title>Logo_MerkurGaming</title><g id="Layer_2" data-name="Layer 2"><g id="Layer_2-2" data-name="Layer 2"><g id="sun"><polygon id="_Path_" data-name="&lt;Path&gt;" class="cls-1" points="183.2 0 187.83 56.8 228.74 22.23 212.99 83.19 284.14 53.71 239.08 109.89 312.39 114.52 245.25 155.42 305.29 179.34 242.32 181.81 269.94 248.34 208.67 210.83 215 287.08 171.16 235.37 153.42 284.92 135.36 234.75 93.53 283.53 105.11 211.45 36.73 241.85 81.18 186.91 10.8 194.16 63.13 163.91 0 143.07 72.69 129.49 21.45 81.49 78.56 92.61 52.63 32.26 113.44 74.39 108.5 9.26 146.63 61.43 183.2 0"/><ellipse id="_Path_2" data-name="&lt;Path&gt;" class="cls-2" cx="158.51" cy="146.47" rx="79.79" ry="74.86"/><path id="_Path_3" data-name="&lt;Path&gt;" class="cls-3" d="M102.17,108.19c4.63-1.85,10.5-2.16,14.66.93a17.2,17.2,0,0,1,6.64,11.27c1.08,4.63.15,9.26-.77,13.74-.31,0-.93-.15-1.39-.15,1.23-6.64.93-14-3.09-19.91-1.85-2.78-5.25-4.17-8.64-4.63a16.19,16.19,0,0,0-13.27,7.41,44.27,44.27,0,0,0-3.09,6c0-1.39.15-2.78.15-4.17,1.08-4.48,4.63-8.18,8.8-10.5Z"/><path id="_Path_4" data-name="&lt;Path&gt;" class="cls-3" d="M149.4,110.66c3.4-1.39,6.95-2.78,10.65-2.47-.31,1.23-1.7,1.39-2.78,1.85-5.25,1.7-10.5,3.86-14.82,7.41-4.17,3.86-7.72,8.8-7.72,14.51.31,3.55,1.7,7.41,4.94,9.41a12.42,12.42,0,0,0,6.64,2c4.48.31,9.11,0,13.58.31,1.85,1.23,1.23,4,.31,5.71-.31,1.08-1.7.62-2.47.62a8.81,8.81,0,0,0,.62-4.48c-4.32,0-8.8,0-13.12-.15a13.81,13.81,0,0,1-11-5.86c-2.16-3.24-2.47-7.25-2.16-11,1.85-8.49,9.26-14.51,17.29-17.9Z"/><path id="_Path_5" data-name="&lt;Path&gt;" class="cls-3" d="M189.38,115.29a14.82,14.82,0,0,1,14.2-3.4A16.93,16.93,0,0,1,215,122.39c1.85,4.94,2,10.5,1.54,15.74,0,.93-.46,1.39-1.39,1.7-.15-6.33-.62-12.81-3.4-18.52-2.93-5.71-11-9.41-17.29-6.33-5.56,3.09-8.49,9-10.19,14.66H183.2c.46-5.25,2.16-10.65,6.17-14.35Z"/><path id="_Path_6" data-name="&lt;Path&gt;" class="cls-3" d="M105.72,120.08a5.21,5.21,0,0,1,6,2.16c2.16,3.4,1.85,7.56,1.39,11.42-.77,3.7-2.16,7.72-5.56,10-2.32.93-5.56.62-6.95-1.54-2.62-4.32-2.16-9.57-.93-14.2.93-3.09,2.62-6.48,6-7.87Z"/><path id="_Path_7" data-name="&lt;Path&gt;" class="cls-3" d="M198.79,123.47c2.16,0,4.63,1.23,5.4,3.4a21.1,21.1,0,0,1-1.7,18.21c-1.39,2.16-3.4,4.32-6.33,4.32-2.32.31-4-1.7-4.63-3.55-1.7-4.94-.93-10.19.77-15.13,1.08-3.09,2.78-6.64,6.48-7.25Z"/><path id="_Compound_Path_" data-name="&lt;Compound Path&gt;" class="cls-3" d="M218.7,169.47a28.74,28.74,0,0,1-8.49-12.5c-.62-1.39-.77-3.4-2.93-3.09.46,2.93,1.54,5.71,2.32,8.64-33.65,6.64-68.53,5.86-102.17-.62l-1.85-.62a31.06,31.06,0,0,0,3.86-7.87c-.46-.31-.77-.62-1.23-.93a36.25,36.25,0,0,1-13.27,14c.31.31.93,1.08,1.23,1.39,2.62-1.08,4.78-2.93,7.25-4.17A100.56,100.56,0,0,0,119.46,184c8.18,7.72,18.68,14,30.25,15.59,2.32.31,4.63.15,6.79.62A57,57,0,0,0,183.2,194c12.19-6.48,21.61-16.82,27.94-28.4,2.47,1.85,4.17,5.25,7.72,5.4A4.3,4.3,0,0,1,218.7,169.47ZM184,190.3a50.25,50.25,0,0,1-27.47,7.25c-10.8,0-21.14-4.32-29.48-10.5-8.33-6-14.82-13.89-20.06-22.53,2.62.31,5.25.93,7.87,1.39a205,205,0,0,0,42.44,4,253.68,253.68,0,0,0,50.78-4.48A67.56,67.56,0,0,1,184,190.3Z"/></g><g id="_Group_" data-name="&lt;Group&gt;"><path id="_Compound_Path_2" data-name="&lt;Compound Path&gt;" class="cls-3" d="M233.67,238.77c5.71,0,10.34,4.32,10.34,9.72s-4.63,9.72-10.34,9.72-10.34-4.32-10.34-9.72,4.63-9.72,10.34-9.72m0-1.85c-6.79,0-12.35,5.25-12.35,11.58s5.56,11.58,12.35,11.58S246,254.82,246,248.49s-5.56-11.58-12.35-11.58Z"/><path id="_Compound_Path_3" data-name="&lt;Compound Path&gt;" class="cls-3" d="M228.73,242.32h6a5.06,5.06,0,0,1,3.24.93,3.46,3.46,0,0,1,1.08,2.62,3.29,3.29,0,0,1-.46,1.85,2.37,2.37,0,0,1-1.54,1.08,1.92,1.92,0,0,1,1.23.93,16,16,0,0,1,.46,1.85l.15,3.4h-2.16v-2.78a1.7,1.7,0,0,0-2-2H231.2v4.63h-2.47Zm4.78,6c3.09,0,3.09-.93,3.09-2.16s0-2.16-2.93-2.16H231.2v4.32h2.32Z"/></g><g id="name"><path id="_Path_8" data-name="&lt;Path&gt;" class="cls-4" d="M340.48,44.45h42.29s19.45,57.11,21.61,62.82l21.76-61.12,1.85-1.7H467.5l.46,2.78-.31,92.14H441.26L441.57,67,416,139.37h-25L366.56,67l.15,72.39H340.48V44.45Z"/><polygon id="_Path_9" data-name="&lt;Path&gt;" class="cls-4" points="496.36 139.37 496.36 44.45 569.06 44.45 569.06 62.66 523.68 62.66 523.68 81.96 565.05 81.96 565.05 100.17 523.68 100.17 523.68 121.16 569.06 121.16 569.06 139.37 496.36 139.37"/><path id="_Path_10" data-name="&lt;Path&gt;" class="cls-4" d="M700.4,139.37V44.45h27V83.34L758,44.45h32.26L753.5,88.28l39.67,51.09c-11.42,0-23,.15-34.42,0C748.4,125,727.41,96.46,727.41,96.46v42.91Z"/><path id="_Path_11" data-name="&lt;Path&gt;" class="cls-4" d="M808.13,44.45H835s0,37,.15,55.72c.31,5.86.93,12.35,5.09,17.13,4.17,4.94,11.88,5.56,17.9,4,4.94-1.23,8.18-5.56,9.72-9.88.31-1.08.62-2,.93-3.09,1.23-7.1.77-63.9.77-63.9h26.86v59.42a35.68,35.68,0,0,1-8,24.23c-8.49,9.57-22.53,13-35.34,12.81-10.19.31-20.68-1.39-29.32-6.48a31.14,31.14,0,0,1-14.82-21c-.46-3.86-.77-69-.77-69Z"/><path id="_Compound_Path_4" data-name="&lt;Compound Path&gt;" class="cls-4" d="M667.07,109c-1.7-4.17-2.93-8.49-5.71-12.19-1.54-2.16-4-3.24-6.33-4.32,6.48-1.54,12.81-5.09,15.9-10.8A27.08,27.08,0,0,0,673.24,63c-1.54-7.1-7.56-12.66-14.51-15.28-6-2.62-12.66-2.78-19-3.09H593.14v94.61l27.32.15v-37.2s8.64-.62,12.5,1.23c4.32,2,6.64,6.33,8.33,10.5,2.47,5.71,4.17,11.58,6.17,17.44.93,2.78,1.85,5.4,2.62,8.18h28.24C678.18,138,670.46,117.3,667.07,109ZM646.54,76.09c-.93,2.16-2.16,4.32-4.32,5.4C637.59,84,632,83.81,626.94,83.81c-2.16-.15-6.48-.15-6.48-.15v-21s11.42-.15,17.13.93c3.09.77,6.33,2,8,4.78C647.16,70.69,647,73.47,646.54,76.09Z"/><path id="_Compound_Path_5" data-name="&lt;Compound Path&gt;" class="cls-4" d="M996.28,109c-1.7-4.17-2.93-8.49-5.71-12.19-1.54-2.16-4-3.24-6.33-4.32,6.48-1.54,12.81-5.09,15.9-10.8A27.08,27.08,0,0,0,1002.45,63c-1.54-7.1-7.56-12.66-14.51-15.28-6-2.62-12.66-2.78-19-3.09H922.35v94.61l27.32.15v-37.2s8.64-.62,12.5,1.23c4.32,2,6.64,6.33,8.33,10.5,2.47,5.71,4.17,11.58,6.17,17.44.93,2.78,1.85,5.4,2.62,8.18h28.24C1007.54,138,999.67,117.3,996.28,109Zm-21-31.79c-1.08,3.24-4.48,5.09-7.72,5.86-5.86,1.39-11.88.62-17.9.93V62.82c3.86.15,7.87-.31,11.73.31,4.32.15,8.8,1.08,12.19,3.7C976.37,69.45,976.52,73.78,975.29,77.17Z"/><path id="_Path_12" data-name="&lt;Path&gt;" class="cls-4" d="M346.34,176.26c8-10,21-15.9,34.11-16.67,10.34-.62,21,.46,30.56,4.32-.15,2.78-.62,5.56-.93,8.33a43.14,43.14,0,0,0-13.12-4c-10.8-1.7-22.38-1.39-32.1,3.7a35.32,35.32,0,0,0-17.75,21.92,48.08,48.08,0,0,0,1.7,30.87,33.37,33.37,0,0,0,19.45,18.52c12.19,4.32,25.93,3.7,38-.46V210.37H382.92v-7.72c10.8.31,21.61-.31,32.41.31-.15,15.13,0,30.25,0,45.38a77.88,77.88,0,0,1-38.89,5.25c-10.19-1.23-20.22-5.25-27.32-12.35-8.49-7.87-12.5-19-13.27-29.94v-9c1.08-9.26,4.32-18.68,10.5-26.08Z"/><path id="_Path_13" data-name="&lt;Path&gt;" class="cls-4" d="M962.32,160.67c7.1-1.54,14.35-1.39,21.45-.77a88.39,88.39,0,0,1,16.51,3.86,32.66,32.66,0,0,1-.62,8.64c-1.85-.93-3.7-1.7-5.71-2.47-11.73-3.24-24.85-3.86-36.42.62a34.73,34.73,0,0,0-18.37,17.29c-3.7,7.87-4.63,16.67-3.7,25.16,1.08,8.33,4.32,16.82,10.65,22.84,5.56,5.71,13.58,9,21.61,10a61.88,61.88,0,0,0,28.55-2.93V210.52H973V203c10.8-.46,21.45.15,32.26-.15.15,15.28.15,30.41,0,45.69a90.2,90.2,0,0,1-9.11,3.09c-13.74,3.55-28.86,4-42.29-.93A43.85,43.85,0,0,1,934.39,236c-7.87-10.65-9.72-24.23-8.18-36.89a44.92,44.92,0,0,1,12.66-25.78c5.86-6.48,14.51-10.8,23.46-12.66Z"/><path id="_Path_14" data-name="&lt;Path&gt;" class="cls-4" d="M575.7,160.82c4.78,0,9.57-.15,14.35,0a49.44,49.44,0,0,0,2.62,6.64c6,13.89,12,27.63,18.06,41.52,4.94,11.11,9.57,22.53,14.66,33.49,11.73-27.32,23.61-54.48,35.34-81.8h14.2v91.52a31,31,0,0,1-9.26,0c.15-17.59,0-35.19,0-52.78-.15-10,.31-20.22-.15-30.25-3.55,9.41-7.87,18.52-11.73,27.63-8,18.52-16.05,37-23.92,55.72h-9.11c-12.35-27.63-23.92-55.56-36.27-83.19-.15,27.78.15,55.41-.15,83.19H575.7c0-30.41.15-61,0-91.68Z"/><path id="_Path_15" data-name="&lt;Path&gt;" class="cls-4" d="M737.91,160.82h9v91.83h-9c-.15-30.56,0-61.12,0-91.83Z"/><path id="_Path_16" data-name="&lt;Path&gt;" class="cls-4" d="M809.21,160.82h12.35c16.51,27,33.18,54,49.54,81.18a9.83,9.83,0,0,1,1.08-.31h-.93c.15-27,0-54,0-80.88h8.8c-.15,30.56,0,61.27,0,91.83-4,0-7.87.15-11.88,0a9.6,9.6,0,0,1-2.16-2.93c-15.9-26.24-32.1-52.17-47.85-78.41-.31,26.86,0,53.87-.15,80.88l-.62.62c-2.62.15-5.4,0-8,0-.31-30.71-.15-61.27-.15-92Z"/><path id="_Compound_Path_6" data-name="&lt;Compound Path&gt;" class="cls-4" d="M529.55,234.45C518.9,209.91,508.4,185.36,497.75,161h-9.88a58.48,58.48,0,0,1-2.78,6.48c-12.19,28.4-24.54,56.8-36.58,85.35h8.64c3.7-8.49,7.25-17.13,11.11-25.62h49.24c1.85,4.48,3.7,9,5.56,13.27,1.54,4.17,3.4,8.18,5.09,12.35h9.26C534.95,246.48,532.17,240.46,529.55,234.45Zm-58.34-14.66c7.1-17,14.51-33.8,21.45-50.78,5.56,12.81,11,25.78,16.36,38.59,1.7,4,3.55,8,5.09,12.19Z"/></g></g></g></svg>