<svg xmlns="http://www.w3.org/2000/svg" viewBox="0 0 268.39 268.39"><defs><style>.cls-1{fill:#231f20;opacity:0.95;}.cls-2{fill:#f7ce15;}.cls-3{fill:#fdfefd;}.cls-4{fill:#010101;}.cls-5{fill:#fff;}</style></defs><title>Premios_CuadroG_1</title><g id="Layer_2" data-name="Layer 2"><g id="Layer_1-2" data-name="Layer 1"><rect class="cls-1" width="268.39" height="268.39"/><g id="sun"><polygon id="_Path_" data-name="&lt;Path&gt;" class="cls-2" points="56.48 99.4 57.6 113.17 67.52 104.78 63.7 119.56 80.95 112.42 70.03 126.04 87.8 127.16 71.52 137.07 86.08 142.87 70.81 143.47 77.51 159.6 62.66 150.51 64.19 168.99 53.56 156.46 49.26 168.47 44.88 156.31 34.74 168.13 37.55 150.66 20.97 158.03 31.75 144.71 14.69 146.47 27.37 139.13 12.07 134.08 29.69 130.79 17.27 119.15 31.11 121.85 24.83 107.22 39.57 117.43 38.37 101.64 47.61 114.29 56.48 99.4"/><ellipse id="_Path_2" data-name="&lt;Path&gt;" class="cls-3" cx="50.5" cy="134.9" rx="19.34" ry="18.15"/><path id="_Path_3" data-name="&lt;Path&gt;" class="cls-4" d="M36.84,125.63a3.74,3.74,0,0,1,3.55.22A4.17,4.17,0,0,1,42,128.58a7.69,7.69,0,0,1-.19,3.33c-.07,0-.22,0-.34,0a6.43,6.43,0,0,0-.75-4.83,2.93,2.93,0,0,0-2.1-1.12,3.93,3.93,0,0,0-3.22,1.8,10.73,10.73,0,0,0-.75,1.46c0-.34,0-.67,0-1a4.21,4.21,0,0,1,2.13-2.54Z"/><path id="_Path_4" data-name="&lt;Path&gt;" class="cls-4" d="M48.29,126.22a5.68,5.68,0,0,1,2.58-.6c-.07.3-.41.34-.67.45a10.8,10.8,0,0,0-3.59,1.8,5,5,0,0,0-1.87,3.52,2.91,2.91,0,0,0,1.2,2.28,3,3,0,0,0,1.61.49c1.09.07,2.21,0,3.29.07.45.3.3,1,.07,1.38s-.41.15-.6.15a2.14,2.14,0,0,0,.15-1.09c-1,0-2.13,0-3.18,0a3.35,3.35,0,0,1-2.66-1.42,4.13,4.13,0,0,1-.52-2.66c.45-2.06,2.24-3.52,4.19-4.34Z"/><path id="_Path_5" data-name="&lt;Path&gt;" class="cls-4" d="M58,127.35a3.59,3.59,0,0,1,3.44-.82,4.1,4.1,0,0,1,2.77,2.54,8.77,8.77,0,0,1,.37,3.82c0,.22-.11.34-.34.41a10.76,10.76,0,0,0-.82-4.49,3.33,3.33,0,0,0-4.19-1.53,5.73,5.73,0,0,0-2.47,3.55h-.26a5.27,5.27,0,0,1,1.5-3.48Z"/><path id="_Path_6" data-name="&lt;Path&gt;" class="cls-4" d="M37.7,128.51a1.26,1.26,0,0,1,1.46.52,4.14,4.14,0,0,1,.34,2.77,3.72,3.72,0,0,1-1.35,2.43,1.42,1.42,0,0,1-1.68-.37,4.4,4.4,0,0,1-.22-3.44,2.79,2.79,0,0,1,1.46-1.91Z"/><path id="_Path_7" data-name="&lt;Path&gt;" class="cls-4" d="M60.26,129.33a1.4,1.4,0,0,1,1.31.82,5.11,5.11,0,0,1-.41,4.42,1.91,1.91,0,0,1-1.53,1,1.13,1.13,0,0,1-1.12-.86,5.62,5.62,0,0,1,.19-3.67c.26-.75.67-1.61,1.57-1.76Z"/><path id="_Compound_Path_" data-name="&lt;Compound Path&gt;" class="cls-4" d="M65.09,140.48a7,7,0,0,1-2.06-3c-.15-.34-.19-.82-.71-.75.11.71.37,1.38.56,2.1a64.9,64.9,0,0,1-24.77-.15l-.45-.15a7.53,7.53,0,0,0,.94-1.91l-.3-.22a8.79,8.79,0,0,1-3.22,3.4l.3.34c.64-.26,1.16-.71,1.76-1A24.38,24.38,0,0,0,41,144a13.61,13.61,0,0,0,7.33,3.78c.56.07,1.12,0,1.65.15a13.83,13.83,0,0,0,6.47-1.5,16.89,16.89,0,0,0,6.77-6.88c.6.45,1,1.27,1.87,1.31A1,1,0,0,1,65.09,140.48Zm-8.42,5.05a12.24,12.24,0,0,1-13.81-.79A18.35,18.35,0,0,1,38,139.28c.64.07,1.27.22,1.91.34a49.7,49.7,0,0,0,10.29,1,61.5,61.5,0,0,0,12.31-1.09A16.38,16.38,0,0,1,56.67,145.53Z"/></g><g id="_Group_" data-name="&lt;Group&gt;"><path id="_Compound_Path_2" data-name="&lt;Compound Path&gt;" class="cls-4" d="M68.72,157.28a2.36,2.36,0,1,1-2.51,2.36,2.43,2.43,0,0,1,2.51-2.36m0-.45a2.81,2.81,0,1,0,3,2.81,2.92,2.92,0,0,0-3-2.81Z"/><path id="_Compound_Path_3" data-name="&lt;Compound Path&gt;" class="cls-4" d="M67.52,158.14H69a1.23,1.23,0,0,1,.79.22A.84.84,0,0,1,70,159a.8.8,0,0,1-.11.45.57.57,0,0,1-.37.26.46.46,0,0,1,.3.22,3.88,3.88,0,0,1,.11.45l0,.82h-.52v-.67A.41.41,0,0,0,69,160h-.86v1.12h-.6Zm1.16,1.46c.75,0,.75-.22.75-.52s0-.52-.71-.52h-.6v1h.56Z"/></g><g id="name"><path id="_Path_8" data-name="&lt;Path&gt;" class="cls-5" d="M94.61,110.17h10.25s4.71,13.84,5.24,15.23l5.28-14.82.45-.41h9.58l.11.67-.07,22.34H119l.07-17.55-6.21,17.55h-6.06l-5.91-17.55,0,17.55H94.61v-23Z"/><polygon id="_Path_9" data-name="&lt;Path&gt;" class="cls-5" points="132.4 133.18 132.4 110.17 150.02 110.17 150.02 114.59 139.02 114.59 139.02 119.27 149.05 119.27 149.05 123.68 139.02 123.68 139.02 128.77 150.02 128.77 150.02 133.18 132.4 133.18"/><path id="_Path_10" data-name="&lt;Path&gt;" class="cls-5" d="M181.86,133.18v-23h6.55v9.43l7.41-9.43h7.82l-8.9,10.63,9.62,12.38c-2.77,0-5.57,0-8.34,0-2.51-3.48-7.6-10.4-7.6-10.4v10.4Z"/><path id="_Path_11" data-name="&lt;Path&gt;" class="cls-5" d="M208,110.17h6.51s0,9,0,13.51a6.63,6.63,0,0,0,1.23,4.15c1,1.2,2.88,1.35,4.34,1a3.59,3.59,0,0,0,2.36-2.39c.07-.26.15-.49.22-.75.3-1.72.19-15.49.19-15.49h6.51v14.41a8.65,8.65,0,0,1-1.95,5.87c-2.06,2.32-5.46,3.14-8.57,3.11a13.25,13.25,0,0,1-7.11-1.57,7.55,7.55,0,0,1-3.59-5.09c-.11-.94-.19-16.72-.19-16.72Z"/><path id="_Compound_Path_4" data-name="&lt;Compound Path&gt;" class="cls-5" d="M173.78,125.81a12.52,12.52,0,0,0-1.38-3,3.63,3.63,0,0,0-1.53-1,5.82,5.82,0,0,0,3.85-2.62,6.57,6.57,0,0,0,.56-4.53,5.44,5.44,0,0,0-3.52-3.7,12.91,12.91,0,0,0-4.6-.75h-11.3v22.94l6.62,0v-9a8.28,8.28,0,0,1,3,.3,4.43,4.43,0,0,1,2,2.54c.6,1.38,1,2.81,1.5,4.23.22.67.45,1.31.64,2h6.85C176.47,132.85,174.6,127.83,173.78,125.81Zm-5-8a2.43,2.43,0,0,1-1,1.31,7.8,7.8,0,0,1-3.7.56c-.52,0-1.57,0-1.57,0v-5.09a29,29,0,0,1,4.15.22,3,3,0,0,1,1.95,1.16A2.5,2.5,0,0,1,168.8,117.84Z"/><path id="_Compound_Path_5" data-name="&lt;Compound Path&gt;" class="cls-5" d="M253.59,125.81a12.52,12.52,0,0,0-1.38-3,3.63,3.63,0,0,0-1.53-1,5.82,5.82,0,0,0,3.85-2.62,6.57,6.57,0,0,0,.56-4.53,5.44,5.44,0,0,0-3.52-3.7,12.91,12.91,0,0,0-4.6-.75h-11.3v22.94l6.62,0v-9a8.28,8.28,0,0,1,3,.3,4.43,4.43,0,0,1,2,2.54c.6,1.38,1,2.81,1.5,4.23.22.67.45,1.31.64,2h6.85C256.32,132.85,254.41,127.83,253.59,125.81Zm-5.09-7.71a2.47,2.47,0,0,1-1.87,1.42,23.94,23.94,0,0,1-4.34.22v-5.13a24.06,24.06,0,0,1,2.84.07,5.1,5.1,0,0,1,3,.9A2.36,2.36,0,0,1,248.5,118.11Z"/><path id="_Path_12" data-name="&lt;Path&gt;" class="cls-5" d="M96,142.13a11.51,11.51,0,0,1,8.27-4,17.16,17.16,0,0,1,7.41,1c0,.67-.15,1.35-.22,2a10.46,10.46,0,0,0-3.18-1,12.6,12.6,0,0,0-7.78.9,8.56,8.56,0,0,0-4.3,5.31,11.66,11.66,0,0,0,.41,7.48,8.09,8.09,0,0,0,4.71,4.49,14.11,14.11,0,0,0,9.2-.11v-7.86H104.9v-1.87c2.62.07,5.24-.07,7.86.07,0,3.67,0,7.33,0,11a18.88,18.88,0,0,1-9.43,1.27,11.28,11.28,0,0,1-6.62-3,10.81,10.81,0,0,1-3.22-7.26v-2.17A12,12,0,0,1,96,142.13Z"/><path id="_Path_13" data-name="&lt;Path&gt;" class="cls-5" d="M245.36,138.35a17.34,17.34,0,0,1,5.2-.19,21.43,21.43,0,0,1,4,.94,7.92,7.92,0,0,1-.15,2.1c-.45-.22-.9-.41-1.38-.6a14.24,14.24,0,0,0-8.83.15,8.42,8.42,0,0,0-4.45,4.19,11.4,11.4,0,0,0-.9,6.1,9.21,9.21,0,0,0,2.58,5.54,9,9,0,0,0,5.24,2.43,15,15,0,0,0,6.92-.71v-7.86h-5.65V148.6c2.62-.11,5.2,0,7.82,0,0,3.7,0,7.37,0,11.08a21.87,21.87,0,0,1-2.21.75,17.41,17.41,0,0,1-10.25-.22,10.63,10.63,0,0,1-4.71-3.55,12.42,12.42,0,0,1-2-8.94,10.89,10.89,0,0,1,3.07-6.25,10.61,10.61,0,0,1,5.69-3.07Z"/><path id="_Path_14" data-name="&lt;Path&gt;" class="cls-5" d="M151.63,138.38c1.16,0,2.32,0,3.48,0a12,12,0,0,0,.64,1.61c1.46,3.37,2.92,6.7,4.38,10.06,1.2,2.69,2.32,5.46,3.55,8.12,2.84-6.62,5.72-13.21,8.57-19.83h3.44v22.19a7.53,7.53,0,0,1-2.24,0c0-4.27,0-8.53,0-12.8,0-2.43.07-4.9,0-7.33-.86,2.28-1.91,4.49-2.84,6.7-1.95,4.49-3.89,9-5.8,13.51h-2.21c-3-6.7-5.8-13.47-8.79-20.17,0,6.73,0,13.43,0,20.17h-2.1c0-7.37,0-14.78,0-22.22Z"/><path id="_Path_15" data-name="&lt;Path&gt;" class="cls-5" d="M191,138.38h2.17v22.26H191c0-7.41,0-14.82,0-22.26Z"/><path id="_Path_16" data-name="&lt;Path&gt;" class="cls-5" d="M208.24,138.38h3c4,6.55,8,13.1,12,19.68a2.38,2.38,0,0,1,.26-.07h-.22c0-6.55,0-13.1,0-19.61h2.13c0,7.41,0,14.85,0,22.26-1,0-1.91,0-2.88,0a2.33,2.33,0,0,1-.52-.71c-3.85-6.36-7.78-12.65-11.6-19-.07,6.51,0,13.06,0,19.61l-.15.15c-.64,0-1.31,0-1.95,0-.07-7.45,0-14.85,0-22.3Z"/><path id="_Compound_Path_6" data-name="&lt;Compound Path&gt;" class="cls-5" d="M140.44,156.23c-2.58-5.95-5.13-11.9-7.71-17.81h-2.39a14.18,14.18,0,0,1-.67,1.57c-3,6.88-5.95,13.77-8.87,20.69h2.1c.9-2.06,1.76-4.15,2.69-6.21h11.94c.45,1.09.9,2.17,1.35,3.22s.82,2,1.23,3h2.24C141.75,159.15,141.08,157.69,140.44,156.23Zm-14.14-3.55c1.72-4.12,3.52-8.19,5.2-12.31,1.35,3.11,2.66,6.25,4,9.35.41,1,.86,1.95,1.23,3Z"/></g></g></g></svg>