<svg xmlns="http://www.w3.org/2000/svg" viewBox="0 0 88.61 88.61"><defs><style>.cls-1{fill:#231f20;opacity:0.95;}.cls-2{fill:#f7ce15;}.cls-3{fill:#fdfefd;}.cls-4{fill:#010101;}.cls-5{fill:#fff;}</style></defs><title>Premios_CuadroCh</title><g id="Layer_2" data-name="Layer 2"><g id="Layer_1-2" data-name="Layer 1"><rect class="cls-1" width="88.61" height="88.61"/><g id="sun"><polygon id="_Path_" data-name="&lt;Path&gt;" class="cls-2" points="18.65 32.81 19.02 37.36 22.29 34.59 21.03 39.47 26.73 37.11 23.12 41.61 28.99 41.98 23.61 45.25 28.42 47.17 23.38 47.37 25.59 52.69 20.68 49.69 21.19 55.79 17.68 51.65 16.26 55.62 14.82 51.6 11.47 55.51 12.4 49.74 6.92 52.17 10.48 47.77 4.85 48.35 9.04 45.93 3.98 44.27 9.8 43.18 5.7 39.34 10.27 40.23 8.2 35.4 13.06 38.77 12.67 33.56 15.72 37.73 18.65 32.81"/><ellipse id="_Path_2" data-name="&lt;Path&gt;" class="cls-3" cx="16.67" cy="44.54" rx="6.39" ry="5.99"/><path id="_Path_3" data-name="&lt;Path&gt;" class="cls-4" d="M12.16,41.47a1.24,1.24,0,0,1,1.17.07,1.38,1.38,0,0,1,.53.9,2.54,2.54,0,0,1-.06,1.1h-.11a2.12,2.12,0,0,0-.25-1.59,1,1,0,0,0-.69-.37,1.3,1.3,0,0,0-1.06.59,3.54,3.54,0,0,0-.25.48c0-.11,0-.22,0-.33a1.39,1.39,0,0,1,.7-.84Z"/><path id="_Path_4" data-name="&lt;Path&gt;" class="cls-4" d="M15.94,41.67a1.88,1.88,0,0,1,.85-.2c0,.1-.14.11-.22.15a3.57,3.57,0,0,0-1.19.59,1.65,1.65,0,0,0-.62,1.16,1,1,0,0,0,.4.75,1,1,0,0,0,.53.16c.36,0,.73,0,1.09,0,.15.1.1.32,0,.46s-.14,0-.2,0a.71.71,0,0,0,0-.36h-1a1.1,1.1,0,0,1-.88-.47,1.36,1.36,0,0,1-.17-.88,2.19,2.19,0,0,1,1.38-1.43Z"/><path id="_Path_5" data-name="&lt;Path&gt;" class="cls-4" d="M19.14,42a1.19,1.19,0,0,1,1.14-.27,1.35,1.35,0,0,1,.91.84,2.89,2.89,0,0,1,.12,1.26c0,.07,0,.11-.11.14a3.55,3.55,0,0,0-.27-1.48A1.1,1.1,0,0,0,19.55,42a1.89,1.89,0,0,0-.82,1.17h-.09A1.74,1.74,0,0,1,19.14,42Z"/><path id="_Path_6" data-name="&lt;Path&gt;" class="cls-4" d="M12.45,42.43a.42.42,0,0,1,.48.17,1.37,1.37,0,0,1,.11.91,1.23,1.23,0,0,1-.44.8.47.47,0,0,1-.56-.12A1.45,1.45,0,0,1,12,43.06a.92.92,0,0,1,.48-.63Z"/><path id="_Path_7" data-name="&lt;Path&gt;" class="cls-4" d="M19.89,42.7a.46.46,0,0,1,.43.27,1.69,1.69,0,0,1-.14,1.46.63.63,0,0,1-.51.35.37.37,0,0,1-.37-.28,1.86,1.86,0,0,1,.06-1.21c.09-.25.22-.53.52-.58Z"/><path id="_Compound_Path_" data-name="&lt;Compound Path&gt;" class="cls-4" d="M21.49,46.38a2.3,2.3,0,0,1-.68-1c0-.11-.06-.27-.23-.25,0,.23.12.46.19.69a21.43,21.43,0,0,1-8.18,0l-.15,0a2.49,2.49,0,0,0,.31-.63l-.1-.07a2.9,2.9,0,0,1-1.06,1.12l.1.11c.21-.09.38-.23.58-.33a8,8,0,0,0,1.28,1.62A4.49,4.49,0,0,0,16,48.79c.19,0,.37,0,.54,0a4.57,4.57,0,0,0,2.14-.49,5.58,5.58,0,0,0,2.24-2.27c.2.15.33.42.62.43A.34.34,0,0,1,21.49,46.38ZM18.71,48a4,4,0,0,1-4.56-.26A6.06,6.06,0,0,1,12.54,46c.21,0,.42.07.63.11a16.41,16.41,0,0,0,3.4.32,20.3,20.3,0,0,0,4.06-.36A5.41,5.41,0,0,1,18.71,48Z"/></g><g id="_Group_" data-name="&lt;Group&gt;"><path id="_Compound_Path_2" data-name="&lt;Compound Path&gt;" class="cls-4" d="M22.69,51.92a.78.78,0,1,1-.83.78.8.8,0,0,1,.83-.78m0-.15a.93.93,0,1,0,1,.93,1,1,0,0,0-1-.93Z"/><path id="_Compound_Path_3" data-name="&lt;Compound Path&gt;" class="cls-4" d="M22.29,52.21h.48a.41.41,0,0,1,.26.07.28.28,0,0,1,.09.21.26.26,0,0,1,0,.15.19.19,0,0,1-.12.09.15.15,0,0,1,.1.07,1.28,1.28,0,0,1,0,.15v.27h-.17V53a.14.14,0,0,0-.16-.16h-.28v.37h-.2Zm.38.48c.25,0,.25-.07.25-.17s0-.17-.23-.17h-.2v.35h.19Z"/></g><g id="name"><path id="_Path_8" data-name="&lt;Path&gt;" class="cls-5" d="M31.23,36.37h3.38s1.56,4.57,1.73,5l1.74-4.89.15-.14H41.4l0,.22,0,7.37H39.3l0-5.79L37.27,44h-2l-2-5.79V44h-2.1v-7.6Z"/><polygon id="_Path_9" data-name="&lt;Path&gt;" class="cls-5" points="43.71 43.97 43.71 36.37 49.53 36.37 49.53 37.83 45.9 37.83 45.9 39.37 49.21 39.37 49.21 40.83 45.9 40.83 45.9 42.51 49.53 42.51 49.53 43.97 43.71 43.97"/><path id="_Path_10" data-name="&lt;Path&gt;" class="cls-5" d="M60,44v-7.6H62.2v3.11l2.45-3.11h2.58l-2.94,3.51L67.46,44c-.91,0-1.84,0-2.75,0-.83-1.15-2.51-3.43-2.51-3.43V44Z"/><path id="_Path_11" data-name="&lt;Path&gt;" class="cls-5" d="M68.66,36.37h2.15s0,3,0,4.46a2.19,2.19,0,0,0,.41,1.37,1.44,1.44,0,0,0,1.43.32,1.19,1.19,0,0,0,.78-.79l.07-.25c.1-.57.06-5.11.06-5.11h2.15v4.76a2.86,2.86,0,0,1-.64,1.94,3.71,3.71,0,0,1-2.83,1,4.37,4.37,0,0,1-2.35-.52,2.49,2.49,0,0,1-1.19-1.68c0-.31-.06-5.52-.06-5.52Z"/><path id="_Compound_Path_4" data-name="&lt;Compound Path&gt;" class="cls-5" d="M57.37,41.54a4.13,4.13,0,0,0-.46-1,1.2,1.2,0,0,0-.51-.35,1.92,1.92,0,0,0,1.27-.86,2.17,2.17,0,0,0,.19-1.49,1.8,1.8,0,0,0-1.16-1.22,4.26,4.26,0,0,0-1.52-.25H51.45V44h2.19V41a2.73,2.73,0,0,1,1,.1,1.46,1.46,0,0,1,.67.84c.2.46.33.93.49,1.4.07.22.15.43.21.65h2.26C58.26,43.86,57.64,42.2,57.37,41.54ZM55.73,38.9a.8.8,0,0,1-.35.43,2.58,2.58,0,0,1-1.22.19h-.52V37.83A9.56,9.56,0,0,1,55,37.9a1,1,0,0,1,.64.38A.82.82,0,0,1,55.73,38.9Z"/><path id="_Compound_Path_5" data-name="&lt;Compound Path&gt;" class="cls-5" d="M83.72,41.54a4.13,4.13,0,0,0-.46-1,1.2,1.2,0,0,0-.51-.35A1.92,1.92,0,0,0,84,39.35a2.17,2.17,0,0,0,.19-1.49,1.8,1.8,0,0,0-1.16-1.22,4.26,4.26,0,0,0-1.52-.25H77.8V44H80V41a2.73,2.73,0,0,1,1,.1,1.46,1.46,0,0,1,.67.84c.2.46.33.93.49,1.4.07.22.15.43.21.65h2.26C84.62,43.86,84,42.2,83.72,41.54ZM82,39a.81.81,0,0,1-.62.47,7.9,7.9,0,0,1-1.43.07V37.84a7.94,7.94,0,0,1,.94,0,1.69,1.69,0,0,1,1,.3A.78.78,0,0,1,82,39Z"/><path id="_Path_12" data-name="&lt;Path&gt;" class="cls-5" d="M31.7,46.92a3.8,3.8,0,0,1,2.73-1.33,5.67,5.67,0,0,1,2.45.35c0,.22,0,.44-.07.67a3.45,3.45,0,0,0-1-.32,4.16,4.16,0,0,0-2.57.3,2.83,2.83,0,0,0-1.42,1.75,3.85,3.85,0,0,0,.14,2.47,2.67,2.67,0,0,0,1.56,1.48,4.66,4.66,0,0,0,3,0V49.65H34.63V49c.86,0,1.73,0,2.59,0,0,1.21,0,2.42,0,3.63a6.23,6.23,0,0,1-3.11.42,3.72,3.72,0,0,1-2.19-1,3.57,3.57,0,0,1-1.06-2.4V49a4,4,0,0,1,.84-2.09Z"/><path id="_Path_13" data-name="&lt;Path&gt;" class="cls-5" d="M81,45.67a5.73,5.73,0,0,1,1.72-.06,7.07,7.07,0,0,1,1.32.31,2.61,2.61,0,0,1,0,.69c-.15-.07-.3-.14-.46-.2a4.7,4.7,0,0,0-2.92,0,2.78,2.78,0,0,0-1.47,1.38,3.76,3.76,0,0,0-.3,2,3,3,0,0,0,.85,1.83,3,3,0,0,0,1.73.8,5,5,0,0,0,2.29-.23V49.66H81.85v-.61c.86,0,1.72,0,2.58,0,0,1.22,0,2.43,0,3.66a7.22,7.22,0,0,1-.73.25,5.75,5.75,0,0,1-3.38-.07,3.51,3.51,0,0,1-1.56-1.17,4.1,4.1,0,0,1-.65-3,3.6,3.6,0,0,1,1-2.06,3.5,3.5,0,0,1,1.88-1Z"/><path id="_Path_14" data-name="&lt;Path&gt;" class="cls-5" d="M50.06,45.69c.38,0,.77,0,1.15,0a4,4,0,0,0,.21.53l1.45,3.32c.4.89.77,1.8,1.17,2.68.94-2.19,1.89-4.36,2.83-6.55H58V53a2.48,2.48,0,0,1-.74,0c0-1.41,0-2.82,0-4.22,0-.8,0-1.62,0-2.42-.28.75-.63,1.48-.94,2.21C55.67,50,55,51.53,54.39,53h-.73c-1-2.21-1.91-4.45-2.9-6.66,0,2.22,0,4.43,0,6.66h-.69c0-2.43,0-4.88,0-7.34Z"/><path id="_Path_15" data-name="&lt;Path&gt;" class="cls-5" d="M63,45.69h.72V53H63c0-2.45,0-4.89,0-7.35Z"/><path id="_Path_16" data-name="&lt;Path&gt;" class="cls-5" d="M68.75,45.69h1c1.32,2.16,2.66,4.32,4,6.5l.09,0h-.07c0-2.16,0-4.32,0-6.47h.7c0,2.45,0,4.9,0,7.35-.32,0-.63,0-1,0a.77.77,0,0,1-.17-.23c-1.27-2.1-2.57-4.18-3.83-6.28,0,2.15,0,4.31,0,6.47l0,0c-.21,0-.43,0-.64,0,0-2.46,0-4.9,0-7.36Z"/><path id="_Compound_Path_6" data-name="&lt;Compound Path&gt;" class="cls-5" d="M46.37,51.58c-.85-2-1.69-3.93-2.54-5.88H43a4.68,4.68,0,0,1-.22.52c-1,2.27-2,4.55-2.93,6.83h.69c.3-.68.58-1.37.89-2.05H45.4l.44,1.06c.12.33.27.65.41,1H47C46.8,52.54,46.58,52.06,46.37,51.58ZM41.7,50.4c.57-1.36,1.16-2.71,1.72-4.06.44,1,.88,2.06,1.31,3.09.14.32.28.64.41,1Z"/></g></g></g></svg>