<svg xmlns="http://www.w3.org/2000/svg" viewBox="0 0 753.4 839"><defs><style>.cls-1{opacity:0.2;}.cls-2{fill:#fff;}.cls-3{fill:none;stroke:#fff;stroke-miterlimit:10;stroke-width:9px;}</style></defs><title>Scan_QR</title><g id="Layer_2" data-name="Layer 2"><g id="Layer_1-2" data-name="Layer 1"><g class="cls-1"><path class="cls-2" d="M540.43,255.74V99.93H696.25V255.74Zm23.82-132V231.92H672.43V123.74Z"/><rect class="cls-2" x="588.49" y="147.99" width="59.69" height="59.69"/><path class="cls-2" d="M696.25,583.26V739.07H540.43V583.26Zm-23.82,132V607.08H564.25V715.26Z"/><rect class="cls-2" x="588.49" y="631.32" width="59.69" height="59.69"/><path class="cls-2" d="M57.15,255.82V100H213V255.82ZM81,123.83V232H189.15V123.83Z"/><rect class="cls-2" x="105.21" y="148.07" width="59.69" height="59.69"/><polygon class="cls-2" points="670.69 457.77 645.12 457.77 645.12 432.21 619.57 432.21 619.57 406.65 594 406.65 594 432.21 568.45 432.21 568.45 457.77 594 457.77 619.57 457.77 619.57 483.33 619.57 508.89 594 508.89 594 483.33 568.45 483.33 542.89 483.33 542.89 457.77 542.89 432.21 542.89 432.21 568.45 432.21 568.45 406.65 542.89 406.65 542.89 406.65 542.89 381.09 517.33 381.09 517.33 406.65 517.33 432.21 517.33 432.21 517.33 406.65 491.77 406.65 491.77 432.21 491.77 432.21 491.77 457.77 517.33 457.77 517.33 483.33 491.77 483.33 491.77 508.89 491.77 534.46 491.77 560.02 517.33 560.02 517.33 534.46 542.89 534.46 568.45 534.46 568.45 560.02 594 560.02 594 534.46 619.57 534.46 619.57 560.02 645.12 560.02 645.12 560.02 670.69 560.02 670.69 560.02 696.25 560.02 696.25 534.46 670.69 534.46 670.69 534.46 645.12 534.46 645.12 508.89 670.69 508.89 696.25 508.89 696.25 483.33 696.25 457.77 670.69 457.77"/><polygon class="cls-2" points="287.25 560.02 287.25 534.46 261.68 534.46 261.68 560.02 261.68 585.58 287.25 585.58 287.25 560.02"/><rect class="cls-2" x="491.77" y="585.58" width="25.55" height="25.56"/><rect class="cls-2" x="491.77" y="662.26" width="25.55" height="25.56"/><rect class="cls-2" x="491.77" y="713.38" width="25.55" height="25.56"/><polygon class="cls-2" points="210.56 278.85 185 278.85 185 304.41 159.44 304.41 159.44 278.85 133.88 278.85 108.32 278.85 82.76 278.85 57.19 278.85 57.19 304.41 82.76 304.41 108.32 304.41 108.32 329.97 82.76 329.97 82.76 355.53 57.19 355.53 57.19 381.09 82.76 381.09 82.76 381.09 108.32 381.09 108.32 355.53 133.88 355.53 159.44 355.53 185 355.53 210.56 355.53 236.12 355.53 236.12 329.97 236.12 304.41 210.56 304.41 210.56 278.85"/><path class="cls-2" d="M159.44,534.46V560H108.32V534.46h25.57V508.89H108.32V483.33H185V457.77h25.56V406.65H185V381.09H133.88v25.56H57.19v25.56H159.44v25.55H108.32v25.56H82.76V457.76H57.19v25.57H82.76v25.56H57.19v25.56H82.76v51.12h76.68v25.56H133.88v51.13h25.56V636.69h51.12V611.13h25.56V534.46H185V508.89H159.44ZM185,560h25.56v25.56H185Z"/><rect class="cls-2" x="261.68" y="611.13" width="25.56" height="25.56"/><polygon class="cls-2" points="466.16 406.65 466.16 381.09 440.6 381.09 415.05 381.09 415.05 406.65 440.6 406.65 466.16 406.65"/><rect class="cls-2" x="312.81" y="329.97" width="25.56" height="25.56"/><rect class="cls-2" x="312.81" y="381.09" width="25.56" height="25.56"/><polygon class="cls-2" points="312.81 381.09 312.81 355.53 287.25 355.53 287.25 329.97 312.81 329.97 312.81 304.41 287.25 304.41 287.25 278.85 312.81 278.85 312.81 304.41 338.36 304.41 338.36 278.85 338.36 253.29 312.81 253.29 312.81 227.73 287.25 227.73 287.25 202.17 312.81 202.17 312.81 176.61 338.36 176.61 363.92 176.61 363.92 151.05 338.36 151.05 312.81 151.05 312.81 125.49 312.81 99.93 287.25 99.93 261.68 99.93 261.68 99.93 236.12 99.93 236.12 125.49 261.68 125.49 261.68 151.05 261.68 176.61 236.12 176.61 236.12 202.17 236.12 227.73 261.68 227.73 261.68 253.29 261.68 278.85 236.12 278.85 236.12 304.41 261.68 304.41 261.68 329.97 261.68 355.53 261.68 381.09 287.25 381.09 312.81 381.09"/><rect class="cls-2" x="670.69" y="329.97" width="25.56" height="25.56"/><path class="cls-2" d="M645.12,304.41h51.12V278.85H619.57v25.56H594V278.85H568.44v25.56H542.89V278.85H517.33v25.56h0V278.85H491.77V381.09h25.56V355.53h51.12v51.12H594V381.09h25.56v25.56h51.12v25.56h25.56V381.09H670.69V355.53H645.12V304.41ZM594,330H568.45V304.41H594Z"/><rect class="cls-2" x="491.77" y="151.05" width="25.55" height="25.56"/><rect class="cls-2" x="491.77" y="202.17" width="25.55" height="25.56"/><rect class="cls-2" x="491.77" y="99.93" width="25.55" height="25.56"/><polygon class="cls-2" points="440.6 99.93 440.6 125.49 466.16 125.49 466.16 151.05 466.16 176.61 440.6 176.61 440.6 202.17 440.6 227.73 415.05 227.73 415.05 253.29 415.05 278.85 415.05 304.41 415.05 329.97 440.6 329.97 466.16 329.97 491.72 329.97 491.72 304.41 491.72 278.85 491.72 253.29 491.72 227.73 491.72 202.17 491.72 176.61 491.72 151.05 491.72 125.49 491.72 99.93 466.16 99.93 440.6 99.93"/><polygon class="cls-2" points="415.05 176.61 440.6 176.61 440.6 151.05 440.6 125.49 415.05 125.49 415.05 99.93 389.48 99.93 363.92 99.93 363.92 125.49 389.48 125.49 389.48 151.05 389.48 176.61 363.92 176.61 363.92 202.17 338.36 202.17 312.81 202.17 312.81 227.73 338.36 227.73 338.36 253.29 363.92 253.29 363.92 278.85 363.92 304.41 338.36 304.41 338.36 329.97 363.92 329.97 363.92 355.53 338.36 355.53 338.36 381.09 363.92 381.09 363.92 406.65 363.92 432.21 363.92 457.77 338.36 457.77 312.81 457.77 312.81 483.33 287.25 483.33 261.68 483.33 261.68 457.77 287.25 457.77 287.25 432.21 287.25 406.65 261.68 406.65 261.68 381.09 236.12 381.09 236.12 406.65 236.12 432.21 236.12 457.77 210.56 457.77 210.56 483.33 185 483.33 185 508.89 210.56 508.89 236.12 508.89 261.68 508.89 287.25 508.89 312.81 508.89 312.81 534.46 338.36 534.46 363.92 534.46 389.48 534.46 389.48 508.89 363.92 508.89 363.92 483.33 389.48 483.33 389.48 508.89 415.05 508.89 440.6 508.89 466.16 508.89 466.16 483.33 466.16 457.77 491.72 457.77 491.72 432.21 466.16 432.21 466.16 432.21 440.6 432.21 415.05 432.21 415.05 406.65 389.48 406.65 389.48 381.09 389.48 355.53 389.48 329.97 389.48 304.41 389.48 278.85 389.48 253.29 389.48 227.73 415.05 227.73 415.05 202.17 415.05 176.61"/><polygon class="cls-2" points="440.6 534.46 415.05 534.46 415.05 560.02 440.6 560.02 440.6 585.58 415.05 585.58 415.05 560.02 389.48 560.02 363.92 560.02 338.36 560.02 312.81 560.02 312.81 585.58 312.81 611.13 287.25 611.13 287.25 636.69 287.25 662.26 312.81 662.26 312.81 687.82 338.36 687.82 363.92 687.82 389.48 687.82 389.48 713.38 389.48 738.93 415.05 738.93 415.05 713.38 415.05 687.82 415.05 662.26 415.05 636.69 389.48 636.69 389.48 662.26 363.92 662.26 338.36 662.26 338.36 636.69 338.36 611.13 338.36 585.58 363.92 585.58 363.92 611.13 389.48 611.13 415.05 611.13 440.6 611.13 466.16 611.13 466.16 636.69 466.16 662.26 466.16 687.82 466.16 713.38 466.16 738.93 491.72 738.93 491.72 713.38 491.72 687.82 491.72 662.26 491.72 636.69 491.72 611.13 491.72 585.58 491.72 560.02 491.72 534.46 466.16 534.46 440.6 534.46"/><polygon class="cls-2" points="133.88 687.82 133.88 662.26 108.32 662.26 82.76 662.26 82.76 687.82 57.19 687.82 57.19 713.38 57.19 738.93 82.76 738.93 82.76 713.38 108.32 713.38 133.88 713.38 159.44 713.38 185 713.38 210.56 713.38 236.12 713.38 261.68 713.38 261.68 738.93 287.25 738.93 312.81 738.93 338.36 738.93 363.92 738.93 363.92 713.38 338.36 713.38 312.81 713.38 287.25 713.38 287.25 687.82 261.68 687.82 261.68 662.26 261.68 636.69 236.12 636.69 236.12 662.26 210.56 662.26 210.56 687.82 185 687.82 185 662.26 159.44 662.26 159.44 687.82 133.88 687.82"/></g><path class="cls-3" d="M163.81,4.5H7.34A2.85,2.85,0,0,0,4.5,7.34V166.66"/><path class="cls-3" d="M589.59,4.5H746.05a2.85,2.85,0,0,1,2.84,2.84V166.66"/><path class="cls-3" d="M163.81,834.5H7.34a2.85,2.85,0,0,1-2.84-2.84V672.34"/><path class="cls-3" d="M589.59,834.5H746.05a2.85,2.85,0,0,0,2.84-2.84V672.34"/></g></g></svg>